<svg width="512" height="376" viewBox="0 0 512 376" fill="none" xmlns="http://www.w3.org/2000/svg">
<path d="M0.661433 0.0338545C15.1706 0.222225 30.2096 0.142697 44.713 0.133692L134.171 0.0361994C149.032 0.0228874 180.778 -0.435505 188.61 2.3286C194.661 4.4636 200.812 9.33655 204.51 14.5552C212.391 25.6754 218.323 39.0285 224.642 51.1423C237.132 75.2178 249.5 99.3566 261.747 123.558C293.57 186.049 327.034 248.009 357.135 311.341C350.538 325.534 343.016 339.402 335.973 353.379C332.101 360.333 327.766 365.517 320.848 369.577C314.259 373.437 305.367 376.253 297.76 374.083C293.578 372.889 291.386 370.705 289.029 367.236C282.999 358.36 278.379 348.2 273.485 338.654L249.394 291.647C227.015 248.842 204.98 205.859 183.29 162.701C170.497 137.406 158.348 111.694 144.888 86.7538C128.978 85.6774 112.564 86.419 96.6053 86.3826L0.436294 86.3975C-0.0210108 57.6448 0.314539 28.7884 0.661433 0.0338545Z" fill="#00A86B"/>
<path d="M0.706501 118.985C11.2555 119.012 21.1642 119.019 30.9653 119.012C50.2316 118.999 69.5465 119.383 88.8057 118.92C87.8739 175.583 88.1993 232.726 88.8375 289.4C128.384 288.911 167.935 288.844 207.485 289.208C221.11 318.158 237.073 346.367 251.908 374.73C220.723 375.043 192.862 375.031 163.448 375.043L0.650523 375.039C-0.517013 289.772 0.131347 204.262 0.706501 118.985Z" fill="#00A86B"/>
<path d="M414.866 0.278999C449.766 0.453302 479.131 0.451997 512 0.452043C511.46 6.43811 403.422 219.802 391.73 242.576C385.499 254.715 381.249 264.503 376.112 274.925C365.588 254.715 361.524 247.144 354.355 233.508C345.319 216.318 336.223 199.901 325.245 181.058C337.813 159.684 347.942 135.717 358.873 113.385L414.866 0.278999Z" fill="#00A86B"/>
</svg>
